<?xml version="1.0" standalone="no"?>
<!DOCTYPE svg PUBLIC "-//W3C//DTD SVG 20010904//EN"
 "http://www.w3.org/TR/2001/REC-SVG-20010904/DTD/svg10.dtd">
<svg version="1.0" xmlns="http://www.w3.org/2000/svg"
 width="665.000000pt" height="665.000000pt" viewBox="0 0 665.000000 665.000000"
 preserveAspectRatio="xMidYMid meet">
<metadata>
Created by potrace 1.11, written by Peter Selinger 2001-2013
</metadata>
<g transform="translate(0.000000,665.000000) scale(0.100000,-0.100000)"
fill="#000000" stroke="none">
<path d="M909 6624 c-443 -80 -798 -431 -890 -881 -19 -89 -19 -171 -16 -2460
l2 -2368 22 -75 c50 -178 103 -286 204 -420 142 -188 361 -334 594 -395 l97
-25 2403 0 2402 0 99 25 c376 95 683 402 791 791 l28 99 0 2400 0 2400 -27 97
c-116 422 -451 731 -881 813 -69 13 -379 15 -2415 14 -1941 -1 -2350 -3 -2413
-15z m2236 -1856 l-20 -153 -435 -5 c-425 -5 -435 -5 -438 -25 -2 -11 -96
-712 -211 -1557 -114 -846 -210 -1540 -213 -1543 -3 -3 -79 -4 -170 -3 l-164
3 208 1535 c114 844 208 1547 208 1563 l0 27 -421 0 c-333 0 -420 3 -416 13 2
6 12 76 22 155 l19 142 1026 0 1026 0 -21 -152z m1482 128 c200 -26 305 -58
418 -129 147 -91 268 -250 321 -422 29 -94 27 -362 -4 -468 -68 -237 -241
-440 -461 -540 l-66 -30 52 -18 c90 -31 229 -108 299 -167 206 -173 305 -393
304 -675 -1 -191 -40 -350 -119 -488 -90 -155 -203 -263 -356 -339 -230 -115
-474 -139 -1397 -140 -446 0 -508 2 -508 15 0 8 104 780 230 1716 127 935 230
1703 230 1706 0 3 210 3 468 0 341 -4 500 -9 589 -21z"/>
<path d="M3866 4602 c-7 -12 -159 -1143 -153 -1148 12 -12 312 -15 467 -5 368
24 540 81 684 225 118 118 176 247 184 407 7 161 -28 270 -118 360 -88 88
-232 135 -485 159 -128 12 -572 14 -579 2z"/>
<path d="M3660 3112 c0 -5 -38 -291 -85 -636 -47 -344 -85 -638 -85 -653 l0
-26 448 6 c595 7 705 22 892 113 211 104 319 284 320 531 1 405 -266 611 -860
663 -139 12 -630 13 -630 2z"/>
</g>
</svg>
