<?xml version="1.0" standalone="no"?>
<!DOCTYPE svg PUBLIC "-//W3C//DTD SVG 20010904//EN"
 "http://www.w3.org/TR/2001/REC-SVG-20010904/DTD/svg10.dtd">
<svg version="1.0" xmlns="http://www.w3.org/2000/svg"
 width="665.000000pt" height="665.000000pt" viewBox="0 0 665.000000 665.000000"
 preserveAspectRatio="xMidYMid meet">
<metadata>
Created by potrace 1.11, written by Peter Selinger 2001-2013
</metadata>
<g transform="translate(0.000000,665.000000) scale(0.100000,-0.100000)"
fill="#000000" stroke="none">
<path d="M909 6624 c-443 -80 -798 -431 -890 -881 -19 -89 -19 -171 -16 -2460
l2 -2368 22 -75 c50 -178 103 -286 204 -420 142 -188 361 -334 594 -395 l97
-25 2403 0 2402 0 99 25 c376 95 683 402 791 791 l28 99 0 2400 0 2400 -27 97
c-116 422 -451 731 -881 813 -69 13 -379 15 -2415 14 -1941 -1 -2350 -3 -2413
-15z m2261 -1716 c0 -13 -9 -86 -20 -163 -11 -77 -20 -141 -20 -142 0 -2 -195
-3 -434 -3 l-434 0 -6 -37 c-3 -21 -96 -706 -206 -1523 -110 -817 -203 -1502
-206 -1522 l-6 -38 -174 0 c-147 0 -174 2 -174 15 0 16 406 3033 414 3078 l6
27 -420 0 -420 0 0 23 c0 23 24 208 35 275 l6 32 1029 0 1030 0 0 -22z m1395
2 c195 -20 300 -46 412 -101 266 -131 423 -388 423 -692 0 -337 -178 -625
-479 -777 l-65 -32 73 -28 c336 -131 546 -418 568 -775 10 -175 -21 -341 -92
-491 -52 -113 -101 -179 -193 -266 -151 -142 -318 -209 -622 -249 -95 -13
-1490 -25 -1490 -14 0 8 160 1197 305 2260 51 380 108 802 127 939 l33 248
445 -5 c245 -3 495 -10 555 -17z"/>
<path d="M3963 4603 c-91 -4 -92 -4 -97 -31 -19 -100 -148 -1104 -142 -1110
13 -12 383 -14 526 -2 320 26 507 98 640 247 56 64 122 191 140 272 20 84 15
225 -9 301 -54 169 -179 253 -434 295 -81 14 -459 38 -512 33 -11 -1 -61 -4
-112 -5z"/>
<path d="M3665 3088 c-3 -18 -41 -301 -85 -628 -44 -327 -82 -608 -85 -624
l-5 -28 473 5 c589 7 681 18 867 110 205 101 310 278 310 524 0 127 -12 188
-57 283 -88 186 -302 306 -629 355 -106 16 -467 34 -676 35 l-107 0 -6 -32z"/>
</g>
</svg>
